<svg xmlns="http://www.w3.org/2000/svg" width="35" height="35" viewBox="0 0 24 24" fill="currentColor">
  <path d="M22.23 0H1.77C.79 0 0 .774 0 1.727v20.546C0 23.226.79 24 1.77 24h20.46c.98 0 1.77-.774 1.77-1.727V1.727C24 .774 23.21 0 22.23 0zM7.06 20.452H3.54V9h3.52v11.452zM5.3 7.518c-1.13 0-2.045-.92-2.045-2.055C3.255 4.32 4.17 3.4 5.3 3.4c1.135 0 2.046.92 2.046 2.063 0 1.134-.91 2.055-2.045 2.055zM20.452 20.452h-3.522v-5.708c0-1.36-.026-3.108-1.894-3.108-1.896 0-2.185 1.48-2.185 3.008v5.808H9.421V9h3.38v1.561h.048c.472-.894 1.632-1.836 3.36-1.836 3.593 0 4.257 2.367 4.257 5.447v6.78z"/>
</svg>
