<svg xmlns="http://www.w3.org/2000/svg" width="35" height="35" viewBox="0 0 24 24" fill="currentColor">
  <path d="M12 .5C5.37.5 0 5.87 0 12.5c0 5.28 3.438 9.744 8.207 11.322.6.11.793-.26.793-.577 0-.285-.01-1.04-.015-2.04-3.338.724-4.042-1.61-4.042-1.61-.546-1.387-1.333-1.756-1.333-1.756-1.09-.744.083-.729.083-.729 1.205.085 1.84 1.24 1.84 1.24 1.07 1.834 2.807 1.304 3.492.997.108-.775.418-1.304.76-1.604-2.665-.304-5.466-1.332-5.466-5.932 0-1.31.467-2.382 1.235-3.222-.124-.303-.536-1.524.117-3.176 0 0 1.008-.322 3.3 1.23.957-.266 1.983-.399 3.003-.404 1.02.005 2.046.138 3.006.404 2.288-1.552 3.293-1.23 3.293-1.23.655 1.652.244 2.873.12 3.176.77.84 1.234 1.912 1.234 3.222 0 4.61-2.804 5.625-5.475 5.921.429.368.81 1.096.81 2.21 0 1.596-.015 2.883-.015 3.273 0 .319.192.694.8.576C20.565 22.243 24 17.78 24 12.5 24 5.87 18.627.5 12 .5z"/>
</svg>
